# xmcd
#
# Track frame offsets:
#	150
#	14826
#	34835
#	61935
#	84222
#	97653
#	118526
#	135550
#	151889
#	174739
#	186838
#
# Disc length: 2974 seconds
#
# Revision: 1
# Processed by: cddbd v1.5.2PL0 Copyright (c) Steve Scherf et al.
# Submitted via: audiograbber 1.83.01
#
DISCID=830b9c0b
DTITLE=Billy Hector - Old Scholl Thang
DYEAR=2015
DGENRE=
TTITLE0=She´s gone
TTITLE1=Going Down
TTITLE2=Old Scholl Thang
TTITLE3=Fake ID
TTITLE4=Vitamin Big Daddy
TTITLE5=Come On Home
TTITLE6=Evil, Slick ´N SLY
TTITLE7=Hammer
TTITLE8=Rita
TTITLE9=Short And Sweet Blues
TTITLE10=People Of The World
EXTD=
EXTT0=
EXTT1=
EXTT2=
EXTT3=
EXTT4=
EXTT5=
EXTT6=
EXTT7=
EXTT8=
EXTT9=
EXTT10=
PLAYORDER=
